<svg xmlns="http://www.w3.org/2000/svg" viewBox="0 0 183 270" width="183" height="270">
	<path fill="#231f20" d="M77.12 184.65c1.41.26 2.26 1.97 7.92.71 1.53-.34 2.62-1.24 4.63.2 1.08.77 2.33 2.44 2.15 4.26-.24 2.35-.51 3.98-4.78 6.37-1.66.93-4.09 1.36-5.95 1.65-2.69.41-4.88-.23-6.83-1.41-1.52-.92-2.79-2.39-4.3-3.33-.56-.35-4.67-4.38-5.16-7.53-.56-3.65-.3-9.16 1.65-11.89 4.34-6.07 11.39-7.79 18.19-9.36 1.24-.28 2.54-.33 3.85-.27.76.04 17.63-2.13 25.33-2.77 6.61-.54 13.11-1.44 18.98-5.11 6.59-4.12 12.52-9.63 15.05-15.96 2.92-7.31 4.75-15.35 7.94-23.02 1.35-3.25 5.67-12.06 10.03-14.11 2.07-.97 4.21-1.31 6.27-.95 2.13.37 4.26 1.46 6.13 3.79 1.88 2.35 2.77 5.13 3.13 8.09.35 2.85.33 5.85.69 8.46 1.82 13.28-3.41 29.91-5.45 42.16-.68 4.05-3.15 13.51-5.71 16.7-2.66 3.33-5.5 3.45-8.88 5.79-2.57 1.78-5.17 3.5-7.16 6.03-.97 1.24-1.39 2.8-1.91 4.3-.56 1.63-1.15 3.23-1.96 4.7-3.76 6.82-5.58 14.89-7.88 22.36-1 3.27-1.5 6.84-2.25 10.31-.92 4.25-2.21 8.37-4.63 11.9-9.08 13.28-24.77 18.11-40.14 20.66-22.34 3.73-47.47 1.95-68.31-6.7-2.67-1.1-7.29-4.47-9.26-7.71-.44-.72-3.81-6-1.03-9.38.32-.38.56-.88.85-1.22.27-.31.57-.6.93-.81.54-.3 1.45-1.01 2.27-1.01 3.04-.02 11.59.22 16 .9 10.49 1.61 22.11 3.38 32.73 1.85 1.8-.26 2.94-1.56 3.71-1.8 2.59-.78 5.58-2.4 7.69-4.62 1.5-1.56 2.64-3.45 2.04-5.63-.63-2.29-3.17-4.17-5.8-3.52-3.92.98-7.25 3.25-11.31 4.12-15.48 3.31-35.34.49-47.13-8.95-3.27-2.62-8.53-7.71-10.46-11.82-4.96-10.53-3.42-22.52-5.2-33.77-2.96-18.77-5.13-37.13-2.35-55.62 1.17-7.76-.47-16.16.76-23.93.74-4.69.52-9.55.52-14.42-.01-5.64.25-11.26 1.94-16.67.65-2.08 1.19-4.66 2.12-6.92.89-2.18 2.1-4.11 3.73-5.53 1.12-.98 3.42-2.39 4.75-2.75 3.58-.97 5.69-.53 7.63.45l1.41.89 1.18 1.08c.9.98 1.61 2.19 2.13 3.61.71 1.92 1.06 4.33 1.27 6.87.22 2.66.21 5.51.93 7.64.64 1.9.77 4.01.68 6.18-.07 1.82-.45 3.71-.04 5.32.73 2.92.09 6.27.09 9.21 0 7.1.18 14.76 1.34 21.73.6 3.63.69 7.09 1.05 10.37.32 2.87.86 5.58 2.8 8.07.74-.34 1.46-.74 2.11-1.35 1.34-1.24 1.74-3.3 2.04-5.37.43-3.02.36-6.18.36-8.59 0-8.22.38-16.34.38-24.59 0-5.57-1.37-11.86-.28-17.33.8-3.98-.33-8.22.23-12.24.49-3.58.96-11.58.53-14.72-.37-2.73.71-7.73 1.49-10.42 1.71-5.99 1.96-12.25 6.18-17.53.86-1.07 1.48-2.52 2.38-3.62.53-.65 1.13-1.24 1.78-1.73l1.7-.98 2.54-.68c.8-.09 1.68-.08 2.65.07 6.17.95 8.54 4.74 9.74 9.84 1.12 4.75.12 11.17.81 15.54 1.78 11.26-.91 23.55 1.08 34.8.26 1.49-.39 4.32-.14 7.99.15 2.27 1.03 9.5.87 14.7-.09 2.71-.15 4.92-.54 6-.33.93.04 9.64.14 10.28.19 1.33-.37 9.94.6 12.53.48 1.28 1.09 2.46 2.16 3.02.84.45 1.88.38 3.15-.04.25-.68.86-2.35 1.08-3.04 1.71-5.12 1.36-11.45 1.36-16.89 0-16.3-.01-33.33-1.63-49.54-.85-8.51.46-17.05-.71-25.5-.75-5.4.78-10.48 1.25-15.78.34-3.76 1.22-8.96 4.14-11.65 1.32-1.22 2.8-3.1 4.62-4.29 2.1-1.37 4.5-2.09 7.36-1.55 3.35.63 7.58 4.01 10.21 8.54 2.48 4.27 1.74 9.64 2.15 13.01.29 2.38.43 6.4.34 7.2-.46 4.38.1 8.79-.34 13.16-.81 8.13.8 16.48-.04 24.56-.61 5.92-.79 13.13.02 19.04.74 5.46 1.26 13.14.42 18.52-.78 4.91-1.4 16.36-.23 21.28l1.79 1.97c1.9-.64 3.15-2.14 3.99-3.91 1.32-2.83 1.68-6.31 1.43-9.38-.27-3.25.83-7.04.83-10.46 0-7.52-1.5-17.55-1.15-24.66.23-4.54-.17-9.24.23-13.82.09-.95.29-2.37.41-3.77.06-.64-.86-5.54-.86-7.5 0-9.8 1.27-20.14 2.84-29.8.51-3.13 1.23-6.62 3.12-9.26l1.02-1.11 1.4-.93c1.83-.94 1.81-1.18 4.33-1.19 5.14-.01 8.02 1.63 8.96 4.53 1.13 3.48 2.19 6.7 3.42 10.08 2.98 8.2 3.67 17.68 4.34 26.4.77 9.95.04 20.27 1.58 30.12 2.3 14.56 2.49 32.25-2.21 46.33-2.19 6.58-7.86 15.64-12.41 17.86-.57.28-.93.88-1.47 1.23-.57.38-1.27.73-1.98 1-.88.34-1.86.54-2.62.87-6.33 2.77-12.27 2.42-18.84 3.94-1.21.28-2.48.29-3.76.18-.6-.05-15.39 1.55-22.23 2.53-5.7.82-11.18 2.15-15.48 6.06-1.06.97-2.27 1.8-3.5 2.63-1.09.73-2.23 1.39-3.02 2.4-3.23 4.12-3.46 9.39-4.67 14.24-.79 3.13 1.26 7.99 2.9 10.82 6.46 11.15 17.28 15.82 30.03 14.01.79-.11 1.42-.69 2.09-1.17.97-.69 1.92-1.43 2.84-2 1.74-1.08 3.98-2.56 5.92-4.33 1.45-1.31 2.81-2.75 3.27-4.41.61-2.26 1.63-3.94 1.26-6.42-.32-2.14-1.69-4.16-3.38-5.96-2.97-3.16-7.08-5.63-10.47-6.48-1.39-.34-3.19-.72-4.96-.72-.96 0-1.96-.01-2.63.57-2.52 2.21-5.08 4.54-3.47 7.75.08.15.21.76.54.82Z"/>
</svg>
